# xmcd CD Database Entry
#
# Track frame offsets:
# 182
# 22235
# 64607
# 108682
# 177157
# 216095
# 258742
# 283970
#
# Disc length: 4386 seconds
#
# Revision: 2
# Processed by: cddbd v1.4PL0 Copyright (c) Steve Scherf et al.
# Submitted via: tcd 2.0b
#
DISCID=80112008
DTITLE=Dave Mathew's Band - Hometown disc2
DYEAR=1900
DGENRE=
TTITLE0=Song That Jane Likes
TTITLE1=Dancing Nancies
TTITLE2=Warehouse
TTITLE3=Jimi Thing
TTITLE4=Lie In Our Graves
TTITLE5=Recently
TTITLE6=Tripping Billies
TTITLE7=All Along The Watchtower
EXTD=
EXTT0=
EXTT1=
EXTT2=
EXTT3=
EXTT4=
EXTT5=
EXTT6=
EXTT7=
PLAYORDER=
